<svg width="103" height="43" viewBox="0 0 103 43" fill="none" xmlns="http://www.w3.org/2000/svg">
<g clip-path="url(#clip0_1_33)">
<path d="M45.2305 15.1488C45.0337 14.7357 44.8211 14.3284 44.593 13.9279C42.9958 11.1233 40.6864 8.73173 37.8693 6.96499C35.0522 5.19824 31.8143 4.11086 28.4425 3.79916C25.0707 3.48746 21.6691 3.96106 18.5389 5.17802C15.4086 6.39497 12.6465 8.31772 10.4971 10.7759C8.34771 13.2342 6.8774 16.152 6.21641 19.2709C5.55542 22.3899 5.72416 25.6137 6.70767 28.6568C7.63486 31.5257 9.2592 34.1504 11.4495 36.3257C14.9733 40.1184 10.3793 43.9364 7.08903 40.6877C4.36863 37.9663 2.36113 34.6158 1.24434 30.9329C0.127548 27.25 -0.0640546 23.3484 0.686502 19.5737C1.43706 15.799 3.10661 12.2678 5.54726 9.29274C7.98792 6.31771 11.1243 3.99074 14.6787 2.51793C18.2331 1.04513 22.0957 0.471954 25.9244 0.849186C29.7531 1.22642 33.4297 2.54241 36.6286 4.68059C39.8274 6.81877 42.4498 9.71315 44.2633 13.1073C44.6192 13.7734 44.9419 14.4548 45.2305 15.1488Z" fill="white"/>
<path d="M33.6412 39.8C33.7325 39.8771 33.8786 39.9543 34.0794 40.0314C34.4081 40.1703 34.7825 40.2397 35.2025 40.2397H35.7777C36.0698 40.2243 36.3985 40.124 36.7637 39.9389C37.4029 39.6766 37.905 38.0026 38.2702 34.9168C38.3798 34.1145 38.4985 33.1965 38.6263 32.1628C38.7542 31.1291 38.8637 30.2342 38.955 29.4782C39.6124 24.217 39.9411 20.0435 39.9411 16.9577C39.9411 15.924 39.9046 15.0137 39.8315 14.2269C39.7402 13.2548 39.5394 12.2057 39.2289 11.0794C38.9185 9.93767 38.4255 8.95794 37.7498 8.14022C36.6542 6.99849 35.5677 6.42763 34.4903 6.42763C34.2347 6.42763 33.7142 6.52791 32.929 6.72849C32.1438 6.91363 31.176 7.61564 30.0256 8.83451C29.0578 9.85281 28.2086 10.9251 27.4782 12.0514C26.7478 13.1777 26.1908 14.1266 25.8074 14.898L25.2322 16.032L25.0952 15.2452C24.7117 12.7457 23.4309 11.2696 22.6457 9.94274C21.4118 8.67249 20.8321 8.00106 19.2201 7.13065C16.1641 4.48594 9.07797 12.1857 8.13763 15.3995C10.0519 11.7505 14.1067 8.13484 17.9736 9.34366C18.0101 9.34366 18.0375 9.3668 18.0557 9.41309C18.3114 9.86052 18.5579 11.0331 18.7953 12.9308C19.0509 14.8132 19.2336 16.8652 19.3431 19.0869C19.544 23.515 20.0188 26.3693 20.7674 27.6499C20.9683 27.9739 21.3061 28.1822 21.7809 28.2747C22 28.321 22.2192 28.3442 22.4383 28.3442C22.6939 28.3442 23.0044 28.3056 23.3696 28.2284C23.7348 28.1359 24.027 27.9276 24.2461 27.6036C24.5017 27.1716 24.73 26.4619 24.9309 25.4744C25.1317 24.4715 25.2778 23.3992 25.3691 22.2575C25.4056 21.5787 25.4422 21.0541 25.4787 20.6838C25.5335 20.2981 25.6156 19.9355 25.7252 19.5961C25.8348 19.2566 25.9991 18.8246 26.2182 18.3C26.3643 17.9606 26.7113 17.2817 27.2591 16.2635C27.8069 15.2297 28.446 14.1111 29.1765 12.9077C29.9069 11.6888 30.6282 10.6397 31.3403 9.76024C32.0342 8.94251 32.5912 8.53365 33.0112 8.53365C33.0295 8.53365 33.1481 8.54908 33.3673 8.57994C33.5864 8.59536 33.7964 8.89623 33.9973 9.48252C34.1981 10.0534 34.3351 10.7168 34.4081 11.4728C34.4812 12.2134 34.5268 12.8691 34.5451 13.44V13.8103C34.5633 14.3194 34.5725 14.8749 34.5725 15.4766C34.5725 17.5132 34.4355 20.1361 34.1616 23.3452C33.5773 30.5968 33.2851 35.3565 33.2851 37.6246C33.2851 38.0874 33.2942 38.4423 33.3125 38.6891C33.3673 39.0286 33.4129 39.2831 33.4494 39.4529C33.486 39.6071 33.5499 39.7229 33.6412 39.8Z" fill="white"/>
<path d="M44.5776 27.8968C44.3363 27.1612 44.2156 26.4026 44.2156 25.621C44.2156 25.3107 44.2328 24.9946 44.2673 24.6728C44.4167 23.5694 44.75 22.5407 45.2672 21.5867C45.9454 20.4374 46.8534 19.5523 47.9912 18.9317C49.1291 18.2995 50.3015 17.9892 51.5083 18.0007C52.7151 18.0007 53.7553 18.3742 54.6288 19.1213L55.0426 19.5006L55.2323 19.0179C55.3472 18.7076 55.5253 18.4432 55.7667 18.2248C56.0196 17.9949 56.2839 17.8513 56.5598 17.7938C56.7322 17.7593 56.9103 17.7421 57.0942 17.7421C57.2322 17.7421 57.3758 17.7536 57.5252 17.7766C57.8701 17.8225 58.1114 17.903 58.2493 18.0179C58.3643 18.1099 58.439 18.2421 58.4735 18.4145C58.5194 18.5754 58.5424 18.7823 58.5424 19.0351C58.5424 19.1616 58.5367 19.2995 58.5252 19.4489C58.5022 19.9086 58.4505 20.5753 58.37 21.4488C58.2321 22.9545 58.1631 24.2188 58.1631 25.2417C58.1631 25.5635 58.1689 25.8624 58.1804 26.1382C58.2264 27.2991 58.4045 28.2933 58.7148 29.1208C59.0826 30.1323 59.4792 30.638 59.9044 30.638C59.9619 30.638 60.0251 30.6265 60.0941 30.6035C60.5768 30.4426 61.0825 29.8967 61.6112 28.9657C62.1515 28.0921 62.7089 26.6382 63.2836 24.6038C63.5249 23.7648 63.7203 23.1154 63.8698 22.6556C64.0192 22.1959 64.1456 21.8741 64.249 21.6902C64.3525 21.5063 64.4559 21.4143 64.5594 21.4143L64.6628 21.3971L64.7663 21.4143C64.8352 21.4258 64.8869 21.4488 64.9214 21.4833V21.5178C64.9214 21.6442 64.8525 22.0005 64.7145 22.5867C64.5536 23.2533 64.3525 24.0234 64.1111 24.8969C63.8812 25.7589 63.6629 26.5233 63.456 27.1899C63.2261 27.937 62.9503 28.6266 62.6284 29.2588C62.3181 29.8794 62.0078 30.3564 61.6975 30.6897C61.2032 31.1954 60.755 31.4713 60.3527 31.5173C59.9504 31.5517 59.6918 31.569 59.5769 31.569C59.0367 31.569 58.508 31.4426 57.9907 31.1897C57.2551 30.8219 56.5943 30.1553 56.0081 29.1898C55.4219 28.2128 54.9966 27.0864 54.7323 25.8106L54.5944 25.1555L54.0254 26.9313C53.6576 28.0577 53.2841 28.9714 52.9048 29.6725C52.1117 31.0633 51.3934 31.7989 50.7497 31.8793C50.1061 31.9598 49.7038 32 49.5429 32C48.6004 32 47.6924 31.6724 46.8189 31.0173C45.8074 30.2472 45.0604 29.207 44.5776 27.8968ZM51.629 29.3794C52.7554 27.9542 53.6404 25.8566 54.284 23.0866C54.376 22.6614 54.4449 22.3281 54.4909 22.0867C54.5369 21.8453 54.5656 21.6787 54.5771 21.5867C54.5886 21.4833 54.5944 21.4028 54.5944 21.3454C54.5944 21.2994 54.5886 21.2592 54.5771 21.2247C54.5541 21.1442 54.5197 21.0695 54.4737 21.0005C53.9565 20.0351 53.5025 19.5179 53.1117 19.4489C52.7324 19.3684 52.4968 19.3282 52.4048 19.3282C51.8301 19.3282 51.2727 19.673 50.7325 20.3626C49.882 21.535 49.3532 22.7591 49.1464 24.0349C48.9395 25.2992 48.836 26.2991 48.836 27.0347C48.836 27.7703 48.905 28.4484 49.0429 29.0691C49.2843 30.0576 49.5084 30.5633 49.7153 30.5863C49.9337 30.5978 50.0544 30.6035 50.0773 30.6035C50.4681 30.6035 50.9853 30.1955 51.629 29.3794ZM69.9212 43.0167C68.6569 42.8098 67.8351 41.988 67.4558 40.5513C67.3523 40.103 67.3006 39.6663 67.3006 39.241C67.3006 37.7813 67.8983 36.4136 69.0936 35.1378C69.5074 34.701 69.9499 34.3045 70.4212 33.9482C70.9039 33.6034 71.605 33.1494 72.5245 32.5862C72.5935 32.5402 72.6567 32.5 72.7141 32.4655C73.1509 32.2126 73.4612 32 73.6451 31.8276C73.8405 31.6552 73.944 31.4598 73.9555 31.2414C73.9784 31.0115 73.9899 30.8047 73.9899 30.6208C73.9899 30.3564 73.9784 30.0403 73.9555 29.6725C73.9555 29.5921 73.9497 29.5116 73.9382 29.4312C73.8693 27.891 73.8003 26.5348 73.7313 25.3624C73.6739 24.1785 73.6279 23.3682 73.5934 22.9315C73.5704 22.6441 73.5417 22.4717 73.5072 22.4143C73.4842 22.3453 73.467 22.3108 73.4555 22.3108C73.421 22.3108 73.3808 22.374 73.3348 22.5005C73.2658 22.7074 73.1739 23.1269 73.059 23.759C72.7141 25.9773 71.9326 28.0174 70.7142 29.8794C69.9901 30.8334 69.3407 31.3104 68.7661 31.3104C68.2029 31.3104 67.9098 31.3104 67.8868 31.3104C66.7834 31.3104 65.8409 30.8909 65.0594 30.0518C64.1284 28.9369 63.5307 27.7588 63.2663 26.5175C63.002 25.2762 62.8698 24.1268 62.8698 23.0694C62.8698 22.7016 62.8813 22.3338 62.9043 21.966C62.9732 20.8281 63.1571 19.9144 63.456 19.2248C63.5824 18.9374 63.7721 18.7363 64.0249 18.6214C64.2778 18.4949 64.6456 18.4317 65.1283 18.4317C66.0133 18.4317 66.5708 18.7076 66.8006 19.2593C66.8466 19.3512 66.8811 19.4546 66.9041 19.5696C66.9386 19.6845 66.9616 19.8454 66.973 20.0523C66.996 20.2592 67.0075 20.558 67.0075 20.9488C67.0075 21.3396 67.0018 21.8568 66.9903 22.5005V22.6729C66.9788 22.9717 66.973 23.2648 66.973 23.5521C66.973 24.2762 66.996 24.9889 67.042 25.69C67.0995 26.6554 67.2776 27.6381 67.5765 28.6381C67.8753 29.638 68.1741 30.138 68.473 30.138H68.4902C68.7891 30.1265 69.2488 29.707 69.8695 28.8795C70.9039 27.5347 71.6625 26.0865 72.1452 24.5349C72.6279 22.9832 72.9727 21.3683 73.1796 19.6903C73.2026 19.5408 73.2314 19.4029 73.2658 19.2765C73.3003 19.1386 73.3291 19.0524 73.352 19.0179C73.398 18.9719 73.4842 18.9374 73.6106 18.9144C73.7371 18.8915 73.8865 18.88 74.0589 18.88C74.3118 18.88 74.4957 18.9029 74.6106 18.9489C74.737 18.9834 74.875 19.0754 75.0244 19.2248C75.714 19.7765 76.2484 20.9948 76.6277 22.8798C76.7427 23.4544 76.8576 24.213 76.9725 25.1555C77.0875 26.0865 77.1737 27.0002 77.2312 27.8968L77.3174 28.9484L77.7139 28.5002C78.4035 27.7071 78.9667 26.8508 79.4035 25.9313C79.6103 25.5176 79.8172 25.0578 80.0241 24.5521C80.2425 24.0349 80.5528 23.2476 80.9551 22.1901C81.0471 21.9488 81.116 21.7706 81.162 21.6557C81.2195 21.5407 81.2769 21.4718 81.3344 21.4488C81.3919 21.4143 81.4723 21.3971 81.5758 21.3971C81.6677 21.3971 81.7424 21.4143 81.7999 21.4488C81.8574 21.4718 81.8861 21.5005 81.8861 21.535C81.8746 21.8568 81.7022 22.4602 81.3689 23.3453C81.0471 24.2303 80.662 25.167 80.2138 26.1555C79.6965 27.2933 78.9782 28.3737 78.0587 29.3967L77.3174 30.2242L77.2484 31.5517C77.1909 32.6207 77.0415 33.7355 76.8001 34.8964C76.5703 36.0688 76.2944 37.0859 75.9726 37.948C75.5473 39.0284 75.0186 39.9938 74.3865 40.8444C73.7543 41.6949 73.1222 42.2811 72.49 42.6029C72.3406 42.6834 72.151 42.7581 71.9211 42.827C71.7027 42.9075 71.4958 42.965 71.3004 42.9994L71.2832 43.0167C71.0763 43.0512 70.9269 43.0742 70.8349 43.0856C70.7545 43.0971 70.6855 43.1029 70.628 43.1029H70.4729C70.3694 43.0914 70.22 43.0684 70.0246 43.0339C69.9901 43.0339 69.9557 43.0282 69.9212 43.0167ZM71.1453 41.8098C72.2142 40.6145 73.013 38.4479 73.5417 35.3102C73.6566 34.6091 73.7371 34.0746 73.7831 33.7068C73.829 33.3505 73.8463 33.1206 73.8348 33.0172C73.8348 32.9137 73.8175 32.862 73.7831 32.862C73.7716 32.862 73.7601 32.8678 73.7486 32.8793C71.2774 34.3734 69.7143 35.7469 69.0592 36.9997C68.7373 37.7353 68.5764 38.4594 68.5764 39.172C68.5764 39.4709 68.6052 39.7697 68.6626 40.0686C68.858 41.057 69.335 41.7811 70.0936 42.2409C70.2085 42.3098 70.312 42.3443 70.4039 42.3443C70.4614 42.3443 70.5131 42.3328 70.5591 42.3098C70.697 42.2524 70.8924 42.0857 71.1453 41.8098ZM80.1965 27.8968C79.9552 27.1612 79.8345 26.4026 79.8345 25.621C79.8345 25.3107 79.8517 24.9946 79.8862 24.6728C80.0356 23.5694 80.3689 22.5407 80.8861 21.5867C81.5643 20.4374 82.4723 19.5523 83.6101 18.9317C84.748 18.2995 85.9204 17.9892 87.1272 18.0007C88.334 18.0007 89.3742 18.3742 90.2477 19.1213L90.6615 19.5006L90.8512 19.0179C90.9661 18.7076 91.1443 18.4432 91.3856 18.2248C91.6385 17.9949 91.9028 17.8513 92.1787 17.7938C92.3511 17.7593 92.5292 17.7421 92.7131 17.7421C92.8511 17.7421 92.9947 17.7536 93.1442 17.7766C93.489 17.8225 93.7303 17.903 93.8683 18.0179C93.9832 18.1099 94.0579 18.2421 94.0924 18.4145C94.1384 18.5754 94.1613 18.7823 94.1613 19.0351C94.1613 19.1616 94.1556 19.2995 94.1441 19.4489C94.1211 19.9086 94.0694 20.5753 93.9889 21.4488C93.851 22.9545 93.782 24.2188 93.782 25.2417C93.782 25.5635 93.7878 25.8624 93.7993 26.1382C93.8453 27.2991 94.0234 28.2933 94.3337 29.1208C94.7015 30.1323 95.0981 30.638 95.5233 30.638C95.5808 30.638 95.644 30.6265 95.713 30.6035C96.1957 30.4426 96.7014 29.8967 97.2302 28.9657C97.7704 28.0921 98.3278 26.6382 98.9025 24.6038C99.1438 23.7648 99.3392 23.1154 99.4887 22.6556C99.6381 22.1959 99.7645 21.8741 99.868 21.6902C99.9714 21.5063 100.075 21.4143 100.178 21.4143L100.282 21.3971L100.385 21.4143C100.454 21.4258 100.506 21.4488 100.54 21.4833V21.5178C100.54 21.6442 100.471 22.0005 100.333 22.5867C100.173 23.2533 99.9714 24.0234 99.73 24.8969C99.5002 25.7589 99.2818 26.5233 99.0749 27.1899C98.845 27.937 98.5692 28.6266 98.2473 29.2588C97.937 29.8794 97.6267 30.3564 97.3164 30.6897C96.8221 31.1954 96.3739 31.4713 95.9716 31.5173C95.5693 31.5517 95.3107 31.569 95.1958 31.569C94.6556 31.569 94.1269 31.4426 93.6096 31.1897C92.874 30.8219 92.2132 30.1553 91.627 29.1898C91.0408 28.2128 90.6155 27.0864 90.3512 25.8106L90.2133 25.1555L89.6443 26.9313C89.2765 28.0577 88.903 28.9714 88.5237 29.6725C87.7306 31.0633 87.0123 31.7989 86.3686 31.8793C85.725 31.9598 85.3227 32 85.1618 32C84.2193 32 83.3113 31.6724 82.4378 31.0173C81.4263 30.2472 80.6793 29.207 80.1965 27.8968ZM87.2479 29.3794C88.3743 27.9542 89.2593 25.8566 89.9029 23.0866C89.9949 22.6614 90.0638 22.3281 90.1098 22.0867C90.1558 21.8453 90.1845 21.6787 90.196 21.5867C90.2075 21.4833 90.2133 21.4028 90.2133 21.3454C90.2133 21.2994 90.2075 21.2592 90.196 21.2247C90.173 21.1442 90.1386 21.0695 90.0926 21.0005C89.5754 20.0351 89.1214 19.5179 88.7306 19.4489C88.3513 19.3684 88.1157 19.3282 88.0237 19.3282C87.449 19.3282 86.8916 19.673 86.3514 20.3626C85.5009 21.535 84.9721 22.7591 84.7653 24.0349C84.5584 25.2992 84.4549 26.2991 84.4549 27.0347C84.4549 27.7703 84.5239 28.4484 84.6618 29.0691C84.9032 30.0576 85.1273 30.5633 85.3342 30.5863C85.5526 30.5978 85.6733 30.6035 85.6962 30.6035C86.087 30.6035 86.6042 30.1955 87.2479 29.3794Z" fill="white"/>
</g>
<defs>
<clipPath id="clip0_1_33">
<rect width="102.4" height="42.55" fill="white"/>
</clipPath>
</defs>
</svg>
